<svg width="106" height="71" viewBox="0 0 106 71" fill="none" xmlns="http://www.w3.org/2000/svg">
<path d="M34.8267 29.665L34.8267 9.88834L44.715 15.3819V24.2264L52.6257 28.6762L60.5364 24.2264V15.3819L70.4248 9.88834V29.665L52.6257 39.5534L34.8267 29.665Z" fill="#192657"/>
<path fill-rule="evenodd" clip-rule="evenodd" d="M39.7708 12.6352L34.8267 9.88836L52.6257 0L70.4248 9.88836L65.4806 12.6352V27.1929L52.6257 34.6093L39.7708 27.1929L39.7708 12.6352ZM64.945 12.9327L60.5364 15.3819V15.3269L52.6257 10.8772L44.715 15.3269V15.3819L40.3065 12.9327V26.8887L52.6257 33.996L64.945 26.8887V12.9327Z" fill="url(#paint0_linear_5_125)"/>
<path d="M96.2071 65.5912L92.2155 53.0607H95.6008L98.506 63.267H98.9608L101.866 53.0607H105.251L101.26 65.5912H96.2071Z" fill="white"/>
<path d="M86.6576 65.9449C85.4113 65.9449 84.3081 65.6839 83.3481 65.1618C82.4049 64.6228 81.6639 63.8733 81.125 62.9133C80.6028 61.9365 80.3418 60.7912 80.3418 59.4776V59.1744C80.3418 57.8607 80.6028 56.7239 81.125 55.7639C81.6471 54.787 82.3797 54.0376 83.3228 53.5155C84.266 52.9765 85.3607 52.707 86.6071 52.707C87.8365 52.707 88.906 52.9849 89.8155 53.5407C90.725 54.0797 91.4323 54.8376 91.9376 55.8144C92.4428 56.7744 92.6955 57.8944 92.6955 59.1744V60.2607H83.5755C83.6092 61.1197 83.9292 61.8186 84.5355 62.3576C85.1418 62.8965 85.8828 63.166 86.7586 63.166C87.6513 63.166 88.3081 62.9723 88.7292 62.5849C89.1502 62.1976 89.4702 61.7681 89.6892 61.2965L92.2913 62.6607C92.0555 63.0986 91.7102 63.5786 91.2555 64.1007C90.8176 64.606 90.2281 65.0439 89.4871 65.4144C88.746 65.7681 87.8029 65.9449 86.6576 65.9449ZM83.6007 57.886H89.4618C89.3944 57.1618 89.0997 56.5807 88.5776 56.1428C88.0723 55.7049 87.4071 55.486 86.5818 55.486C85.7228 55.486 85.0407 55.7049 84.5355 56.1428C84.0302 56.5807 83.7186 57.1618 83.6007 57.886Z" fill="white"/>
<path d="M65.0951 65.5912V62.6607H67.4193V50.8375H65.0951V47.907H72.3709C74.7456 47.907 76.5477 48.5133 77.7772 49.726C79.0235 50.9218 79.6467 52.707 79.6467 55.0818V58.4165C79.6467 60.7912 79.0235 62.5849 77.7772 63.7975C76.5477 64.9933 74.7456 65.5912 72.3709 65.5912H65.0951ZM70.754 62.5596H72.4214C73.7688 62.5596 74.754 62.206 75.3772 61.4986C76.0004 60.7912 76.3119 59.7975 76.3119 58.5175V54.9807C76.3119 53.6839 76.0004 52.6902 75.3772 51.9996C74.754 51.2923 73.7688 50.9386 72.4214 50.9386H70.754V62.5596Z" fill="white"/>
<path d="M61.7515 65.9449C61.0778 65.9449 60.5052 65.726 60.0336 65.2881C59.5789 64.8333 59.3515 64.2523 59.3515 63.5449C59.3515 62.8375 59.5789 62.2649 60.0336 61.827C60.5052 61.3723 61.0778 61.1449 61.7515 61.1449C62.442 61.1449 63.0147 61.3723 63.4694 61.827C63.9241 62.2649 64.1515 62.8375 64.1515 63.5449C64.1515 64.2523 63.9241 64.8333 63.4694 65.2881C63.0147 65.726 62.442 65.9449 61.7515 65.9449Z" fill="url(#paint1_linear_5_125)"/>
<path d="M45.7672 65.5912V53.0607H48.8998V54.7028H49.3546C49.5567 54.2649 49.9356 53.8523 50.4914 53.4649C51.0472 53.0607 51.8893 52.8586 53.0177 52.8586C53.9946 52.8586 54.8451 53.086 55.5693 53.5407C56.3103 53.9786 56.883 54.5933 57.2872 55.3849C57.6914 56.1596 57.8935 57.0691 57.8935 58.1133V65.5912H54.7103V58.3659C54.7103 57.4228 54.4746 56.7154 54.003 56.2438C53.5482 55.7723 52.8914 55.5365 52.0324 55.5365C51.0556 55.5365 50.2977 55.8649 49.7588 56.5217C49.2198 57.1617 48.9503 58.0628 48.9503 59.2249V65.5912H45.7672Z" fill="white"/>
<path d="M40.6356 65.5912V53.0607H43.8188V65.5912H40.6356ZM42.2272 51.5955C41.6545 51.5955 41.1661 51.4102 40.7619 51.0397C40.3745 50.6691 40.1809 50.1807 40.1809 49.5744C40.1809 48.9681 40.3745 48.4797 40.7619 48.1091C41.1661 47.7386 41.6545 47.5533 42.2272 47.5533C42.8167 47.5533 43.3051 47.7386 43.6924 48.1091C44.0798 48.4797 44.2735 48.9681 44.2735 49.5744C44.2735 50.1807 44.0798 50.6691 43.6924 51.0397C43.3051 51.4102 42.8167 51.5955 42.2272 51.5955Z" fill="white"/>
<path d="M25.4981 59.3765V58.9723C25.4981 57.6586 25.7591 56.5386 26.2812 55.6123C26.8033 54.6691 27.4938 53.9533 28.3528 53.4649C29.2286 52.9597 30.1802 52.707 31.2075 52.707C32.3528 52.707 33.2202 52.9091 33.8096 53.3133C34.3991 53.7176 34.8286 54.1386 35.098 54.5765H35.5528V53.0607H38.6854V67.8144C38.6854 68.6733 38.4328 69.3555 37.9275 69.8607C37.4223 70.3828 36.7486 70.6439 35.9065 70.6439H27.5191V67.8649H34.7949C35.2665 67.8649 35.5023 67.6123 35.5023 67.107V63.8481H35.0475C34.8791 64.1176 34.6433 64.3955 34.3402 64.6818C34.037 64.9512 33.6328 65.1786 33.1275 65.3639C32.6223 65.5491 31.9823 65.6418 31.2075 65.6418C30.1802 65.6418 29.2286 65.3976 28.3528 64.9091C27.4938 64.4039 26.8033 63.6881 26.2812 62.7618C25.7591 61.8186 25.4981 60.6902 25.4981 59.3765ZM32.117 62.8628C33.0938 62.8628 33.9107 62.5512 34.5675 61.9281C35.2244 61.3049 35.5528 60.4291 35.5528 59.3007V59.0481C35.5528 57.9028 35.2244 57.027 34.5675 56.4207C33.9275 55.7976 33.1107 55.486 32.117 55.486C31.1402 55.486 30.3233 55.7976 29.6665 56.4207C29.0096 57.027 28.6812 57.9028 28.6812 59.0481V59.3007C28.6812 60.4291 29.0096 61.3049 29.6665 61.9281C30.3233 62.5512 31.1402 62.8628 32.117 62.8628Z" fill="white"/>
<path d="M18.1767 65.9449C16.9304 65.9449 15.8104 65.6923 14.8167 65.187C13.823 64.6818 13.0398 63.9491 12.4672 62.9891C11.8946 62.0291 11.6082 60.8755 11.6082 59.5281V59.1239C11.6082 57.7765 11.8946 56.6228 12.4672 55.6628C13.0398 54.7028 13.823 53.9702 14.8167 53.4649C15.8104 52.9597 16.9304 52.707 18.1767 52.707C19.423 52.707 20.543 52.9597 21.5367 53.4649C22.5304 53.9702 23.3135 54.7028 23.8861 55.6628C24.4588 56.6228 24.7451 57.7765 24.7451 59.1239V59.5281C24.7451 60.8755 24.4588 62.0291 23.8861 62.9891C23.3135 63.9491 22.5304 64.6818 21.5367 65.187C20.543 65.6923 19.423 65.9449 18.1767 65.9449ZM18.1767 63.1155C19.1535 63.1155 19.9619 62.8039 20.6019 62.1807C21.2419 61.5407 21.5619 60.6312 21.5619 59.4523V59.1997C21.5619 58.0207 21.2419 57.1197 20.6019 56.4965C19.9788 55.8565 19.1704 55.5365 18.1767 55.5365C17.1998 55.5365 16.3914 55.8565 15.7514 56.4965C15.1114 57.1197 14.7914 58.0207 14.7914 59.1997V59.4523C14.7914 60.6312 15.1114 61.5407 15.7514 62.1807C16.3914 62.8039 17.1998 63.1155 18.1767 63.1155Z" fill="white"/>
<path d="M0 65.5912V47.907H3.33474V62.5596H11.4189V65.5912H0Z" fill="white"/>
<defs>
<linearGradient id="paint0_linear_5_125" x1="39.7708" y1="7.69093" x2="66.4694" y2="7.69094" gradientUnits="userSpaceOnUse">
<stop stop-color="#0C63E7"/>
<stop offset="0.317708" stop-color="#07C8F9"/>
<stop offset="0.640625" stop-color="#07C8F9"/>
<stop offset="1" stop-color="#0C63E7"/>
</linearGradient>
<linearGradient id="paint1_linear_5_125" x1="59.4737" y1="63.8691" x2="64.2105" y2="63.8691" gradientUnits="userSpaceOnUse">
<stop stop-color="#005EF3"/>
<stop offset="0.515625" stop-color="#07C8F9"/>
<stop offset="1" stop-color="#005EF3"/>
</linearGradient>
</defs>
</svg>
